<?xml version="1.0" encoding="UTF-8"?><svg xmlns="http://www.w3.org/2000/svg" xmlns:xlink="http://www.w3.org/1999/xlink" xml:space="preserve" width="800" height="800" fill="#000000" version="1.1" viewBox="-51.2 -51.2 614.4 614.4"><defs><linearGradient x1="-51.2" x2="563.2" y1="256" y2="256" gradientUnits="userSpaceOnUse" spreadMethod="reflect"><stop offset="0" stop-color="#4189f6"/><stop offset=".5" stop-color="#4c9af7"/><stop offset="1" stop-color="#65c4f7"/></linearGradient></defs><g transform="matrix(1.0458 0 0 1.0632 -10.752 44.544)"><polygon fill="#fff" points="392 360 386 324 410 345 512 297 239 207 128 246 80.003 270 0 294 152 371"/><polygon fill="#e7f4fd" points="228.41 361.94 392 360 386 324 410 345 512 297 308.39 229.87 125.48 259.02"/><polygon fill="#e7f4fd" points="363.8 202.02 374.84 259.02 375.02 259.98 125 261 125.48 259.02 140.12 202.02 182 39 260 0 371 36 437 33 368 86.999 341 83.999"/><polygon fill="#4a4545" points="368 86.999 341 83.999 335 57"/><polygon fill="#428bf6" points="363.8 202.02 374.84 259.02 125.48 259.02 140.12 202.02"/><polygon fill="#7dc5f8" points="260 0 257.54 1.231 257.54 366.16 392 360 386 324 410 345 512 297 373.34 251.29 363.8 202.02 341 83.999 368 86.999 437 33 371 36" opacity=".296"/></g></svg>