<?xml version="1.0" encoding="UTF-8"?><svg xmlns="http://www.w3.org/2000/svg" fill="none" viewBox="0 0 58 53"><path fill="url(#f)" d="m58 45.895h-13v-7.8948h13l-2.1396 3.9473 2.1396 3.9475z"/><path fill="#fff" fill-opacity=".2" d="m55 43-10 3v-3h10z" opacity=".75"/><path fill="url(#e)" d="M0 45.8948H12.9257V38H0L2.12766 41.9473L0 45.8948Z"/><path fill="#fff" fill-opacity=".2" d="M3 43L13 46V43H3Z" opacity=".75"/><path fill="url(#d)" d="m29.22 52.063c14.359 0 26-11.641 26-26s-11.641-26-26-26-26 11.641-26 26 11.641 26 26 26z"/><path fill="url(#c)" d="m29.22 48.165c12.206 0 22.101-9.8951 22.101-22.101 0-12.206-9.8951-22.101-22.101-22.101-12.206 0-22.101 9.8951-22.101 22.101 0 12.206 9.8951 22.101 22.101 22.101z"/><path fill="url(#b)" d="m29.22 47.282c11.719 0 21.218-9.4998 21.218-21.218s-9.4999-21.219-21.218-21.219c-11.719 0-21.219 9.4998-21.219 21.219s9.4998 21.218 21.219 21.218z"/><path fill="#fff" d="m43.402 17.158c0.2642 0.0148 0.5258 0.0294 0.7776 0.0786 0.2274 0.0469 0.4411 0.1159 0.6456 0.233 0.5531-0.8897 0.3588-1.9608 0.0023-2.902-0.0952-0.1945-0.1513-0.4031-0.2063-0.608-0.0547-0.2033-0.1083-0.4029-0.1982-0.5814l-0.0218 0.0504c-0.0256 0.3433-0.1332 0.6553-0.2459 0.9819l-0.0077 0.0225c-0.0709 0.2201-0.1406 0.4436-0.1852 0.686-0.0514 0.3266-0.08 0.6356-0.0765 0.9482-0.6251 0.0082-1.5359-0.0878-2.3153-0.178-0.0559-0.0073-0.1108-0.0141-0.1646-0.0207-0.0486-0.0059-0.0962-0.0118-0.1428-0.0179 0.0777 0.1897 0.1852 0.3571 0.3097 0.5186 0.3143 0.391 0.7691 0.6825 1.3576 0.7551 0.1571 0.0161 0.3147 0.0249 0.4715 0.0337zm-0.5373-5.534c0.545 1.2976 1.0616 2.5279 0.4429 4.0077-0.2125-0.0404-0.4337-0.0717-0.6564-0.1032-0.3711-0.0526-0.7463-0.1057-1.092-0.2023-0.2343-0.0679-0.4468-0.1592-0.6422-0.2822-0.056-0.028-0.1051-0.062-0.1451-0.0971-0.3977-0.384-0.8194-0.9845-0.824-1.5429l0.9531 0.2845 0.6422 0.1978 0.6857 0.2037c-0.1783-1.1156-0.0126-2.175 0.2788-3.2438l0.0149-0.0656c0.1081 0.2863 0.2257 0.5663 0.3421 0.8434zm-1.047 1.9946c-0.0937-0.0391-0.1819-0.0759-0.2768-0.1069-0.2217-0.089-0.4445-0.185-0.6445-0.295-0.4-0.2072-0.7496-0.4846-0.9885-0.9271-0.254-0.4189-0.4365-0.9518-0.6119-1.4642l-0.0017-5e-3c-0.1006-0.302-0.2046-0.597-0.3189-0.8639 0.1075 0.01288 0.2137 0.02692 0.3097 0.0538 0.5248 0.141 0.9152 0.4762 1.3379 0.8389 0.0826 0.0709 0.1665 0.1429 0.2528 0.2147 0.0069 0.0129 0.0172 0.0211 0.0343 0.034 0.2217 0.295 0.4503 0.6871 0.6183 1.1015 0.1919 0.4718 0.3211 0.9787 0.3165 1.4305-0.0091-0.0038-0.0182-0.0076-0.0272-0.0113zm5.0885 4.6049c0.0628 0.6906-0.0869 1.5042-0.4377 2.0029-0.064 0.0843-0.1337 0.1616-0.1977 0.2201-0.2957-0.3956-0.7337-0.5789-1.1756-0.7639-0.2787-0.1167-0.5589-0.234-0.8059-0.4056-0.0275-0.0152-0.056-0.0351-0.0823-0.0573-0.496-0.3606-0.8879-0.8639-1.0114-1.4984 0.3166 0.0047 0.6628 0.0702 0.9954 0.1592 0.1946 0.0497 0.3859 0.105 0.5667 0.1572 0.3129 0.0903 0.5944 0.1716 0.808 0.1998-0.0828-0.5105 0.0866-0.9963 0.2537-1.4756 0.105-0.3009 0.209-0.5993 0.2491-0.8996l0.0389-0.0503c0.1005 0.2821 0.2057 0.5549 0.3211 0.8428 0.1828 0.4847 0.3668 0.9974 0.4777 1.5687zm1.6055 8.1698c-0.0182 0.9049-0.3108 1.9725-0.9702 2.6655-0.2277 0.1836-0.4029 0.3736-0.5768 0.562-0.1254 0.136-0.2502 0.2711-0.3934 0.4026-0.1062 0.0983-0.2319 0.2014-0.3668 0.2927-0.0513-0.0859-0.1036-0.1726-0.1564-0.2601-0.7036-1.1654-1.494-2.4747-1.1178-4.0361h0.032c0.2625 0.6165 0.6824 1.1321 1.0847 1.6263 0.1775 0.218 0.3515 0.4318 0.5072 0.6482 0.0318 0.0498 0.0627 0.0926 0.0935 0.1352 0.0046 0.0065 0.0093 0.0129 0.0139 0.0193l1.8501-2.0556zm-0.1311-2.9545c0.0036 0.0465 0.0074 0.0971 0.0477 0.1661 0.1337 1.6716-0.6399 2.9371-1.7198 4.0058-0.0514-0.0647-0.0993-0.1382-0.1431-0.2053-0.0069-0.0105-0.0137-0.0209-0.0203-0.0311-0.8617-1.2397-1.6319-2.7686-1.4765-4.5222l0.0126-0.0351s0.0423 0.0351 0.0423 0.1112c0.1375 0.1733 0.2844 0.3477 0.433 0.5241 0.3442 0.4084 0.6973 0.8274 0.9623 1.2682 0.1028 0.1779 0.1965 0.357 0.2708 0.5478 0.2163-0.4405 0.5348-0.7657 0.8489-1.0864 0.2618-0.2674 0.5206-0.5316 0.7144-0.8568 0.0221 0.0405 0.0248 0.0757 0.0277 0.1137zm-0.5331-2.3186c0.0209 0.1443 0.0424 0.2919 0.0654 0.4442 0.1166 1.0864-0.3862 1.9246-1.1062 2.5146-0.0742-0.233-0.1816-0.4425-0.3051-0.6392-0.1748-0.2599-0.3862-0.4975-0.6228-0.734-0.7828-0.803-1.3736-1.4399-1.6661-2.4806-0.0067-0.0235-0.0124-0.0474-0.0182-0.0712-0.0079-0.0329-0.0158-0.0659-0.0264-0.0985 0.0039 0.0018 0.0075 0.0034 0.0107 5e-3 0.0121 0.0058 0.0208 0.01 0.0316 0.0091 0.8902 0.3301 1.7096 0.7211 2.2672 1.3298 0.0469 0.0562 0.096 0.1171 0.1452 0.1814l0.9953-1.8121c0.0979 0.4469 0.1611 0.8816 0.2294 1.3515zm-28.884-10.722c-0.0197 0.0232-0.0401 0.0472-0.0616 0.0714-0.3608 0.4547-0.5563 0.9758-0.7786 1.5684-0.0101 0.0268-0.0203 0.0539-0.0305 0.081-0.0737 0.1271-0.1365 0.2647-0.2003 0.4044-0.0925 0.2026-0.1871 0.4097-0.3196 0.5954-0.1068 0.0957-0.2064 0.1962-0.3068 0.2976-0.02 0.0202-0.04 0.0404-0.0601 0.0606-0.3359 0.3125-0.6708 0.5853-1.0342 0.604-0.0045-0.5923 0.0229-1.2081 0.2572-1.8297 0.2034-0.3839 0.4536-0.7129 0.7542-0.9927 0.4697-0.4425 1.0536-0.7597 1.7187-0.9505 0.01-0.0038 0.018-0.0061 0.0253-0.0081 0.0084-0.0024 0.0158-0.0045 0.0238-0.0083l0.0743 0.0351c-0.0201 0.0224-0.0405 0.0464-0.0618 0.0714zm-8.438 10.198 1.1702 1.914c0.0169-0.0155 0.0352-0.0304 0.0537-0.0454 0.0164-0.0134 0.033-0.0269 0.0491-0.0412 0.0804-0.0614 0.1579-0.1224 0.2347-0.1828 0.2367-0.1863 0.4674-0.3677 0.7572-0.5418 0.0835-0.0426 0.1746-0.0925 0.2691-0.1443 0.285-0.156 0.6006-0.3289 0.828-0.3685 0.0194-7e-3 0.0411-7e-3 0.0617-7e-3 -0.0057 0.1487-0.024 0.2892-0.0572 0.4296-0.1844 0.8384-0.7697 1.4429-1.3589 2.0514-0.2466 0.2548-0.494 0.5103-0.7129 0.7839-0.1348 0.1768-0.2617 0.3547-0.3714 0.5478-0.8102-1.1425-1.5244-2.7942-1.0319-4.3945l0.0343-0.014 0.0743 0.0128zm-0.79423 3.7788 1.8775 1.4399c0.0526-0.1416 0.1326-0.2763 0.224-0.3968 0.174-0.2369 0.4034-0.4542 0.6293-0.6683 0.3112-0.2949 0.6159-0.5837 0.7603-0.9086l0.0971-0.0222c0.1234 0.6181-0.024 1.3052-0.3051 1.9022-0.1652 0.3913-0.3744 0.728-0.5827 1.0633-0.2068 0.3328-0.4127 0.6643-0.5738 1.0462-0.0594 0.1499-0.1142 0.2974-0.1622 0.4612-1.0239-1.0886-1.9324-2.2838-1.9644-3.9169zm4.0922-8.9284c0.176 0.5491 0.2125 1.1765 0.1897 1.6787 0.4479-0.2224 0.985-0.3219 1.513-0.3558 0.3634-0.0258 0.7313-0.0153 1.0536 0.0023-0.2697 0.4764-0.6319 0.7902-1.0422 1.0278-0.4122 0.2413-0.8741 0.4017-1.3279 0.5593-0.1186 0.0412-0.2366 0.0822-0.3531 0.1244-0.2685 0.1018-0.5359 0.2118-0.7839 0.3476-0.4228-1.3942-0.4845-2.9254 0.2148-4.2669 0.2526 0.2283 0.4217 0.5385 0.536 0.8826zm1.6535-3.1185c0.2903 0.7305 0.3589 1.6201 0.3417 2.3635l1.3988-0.2927 1.033-0.2165c-0.0143 0.0325-0.0297 0.0535-0.0442 0.0731-0.026 0.0355-0.049 0.0666-0.0563 0.154-0.2663 0.405-0.5589 0.7749-0.9211 1.0629-0.3406 0.2786-0.7325 0.48-1.1999 0.5923-0.0877 0.0201-0.1763 0.0376-0.2646 0.055-0.082 0.0162-0.1636 0.0324-0.2439 0.0504-0.3703 0.0808-0.7211 0.1686-0.9999 0.336 0.0068-0.0426 0.0082-0.0781 0.0096-0.114 0.0024-0.06 0.0048-0.1212 0.0326-0.2185-0.2445-1.564-0.1222-3.0343 0.5223-4.5022l0.0343-0.0012c0.144 0.1943 0.2639 0.4191 0.3576 0.6579zm-2.8168 7.142 1.201-0.4015 1.0708-0.3512c-0.2377 0.4963-0.4583 0.8885-0.8331 1.3087-0.0318 0.0276-0.0643 0.0552-0.0968 0.0828-0.0433 0.0368-0.0865 0.0736-0.1283 0.1104-0.086 0.0808-0.1687 0.1657-0.253 0.252-0.1622 0.1662-0.3299 0.3381-0.5367 0.4984-0.2215 0.1241-0.4451 0.2773-0.6639 0.4272-0.2001 0.1371-0.3962 0.2714-0.5828 0.3782-0.0217-0.0235-0.0343-0.0445-0.0503-0.0726-0.8674-1.386-0.672-3.1115-0.0754-4.6708l0.024-0.0492v0.0059c0.0875 0.1954 0.1823 0.3864 0.2767 0.5767 0.2986 0.6019 0.5939 1.197 0.6478 1.905zm-0.7268 15.386c-0.1875-0.2131-0.3486-0.4507-0.4754-0.727 0.0891-0.0164 0.136-0.0164 0.2274 0.0293 0.0606 0 0.1181 0.0038 0.1767 0.0077 0.0209 0.0013 0.0419 0.0027 0.0633 4e-3 0.7747 0.0573 1.5153 0.2037 2.1106 0.542 0.0343 0.014 0.0629 0.0327 0.0972 0.0573l0.905-2.7463 0.016-0.048c0.0617 0.048 0.1383 0.1253 0.2023 0.2283 0.5786 0.6956 0.3925 1.5435 0.2042 2.4016-0.1591 0.7247-0.3197 1.4566-0.0225 2.11-0.3097-0.2926-0.7005-0.3687-1.1599-0.453-0.0327-0.0149-0.0658-0.0287-0.099-0.0426-0.0424-0.0177-0.085-0.0354-0.1273-0.0557-0.8045-0.336-1.5713-0.7059-2.1186-1.3076zm7.325 8.1534c-0.5039-0.1487-0.9336-0.4168-1.185-0.8511 0.2043 0.0189 0.4139-0.0114 0.639-0.044 0.1097-0.0158 0.2231-0.0323 0.3415-0.0438 0.037-0.0165 0.076-0.0302 0.1137-0.0435 0.0263-0.0092 0.052-0.0182 0.076-0.0279 0.6205-0.2107 1.2456-0.3886 1.8638-0.453 0 0 0-0.041-0.0331-0.1054-0.3156-0.3986-0.3724-0.9296-0.4293-1.4622-0.0615-0.5764-0.1233-1.1548-0.5135-1.5697l0.0217-0.014c0.8502 0.3734 1.3896 1.043 1.8124 1.8226 0.2215 0.4037 0.414 0.836 0.6061 1.2674 0.1488 0.3342 0.2973 0.6679 0.459 0.9873-0.3429 0.0187-0.696 0.0913-1.0377 0.1896-0.154 0.0412-0.3085 0.0864-0.4635 0.1317-0.6338 0.1853-1.2747 0.3727-1.9157 0.2956-0.0327-0.0074-0.0653-0.0149-0.0979-0.0224-0.0858-0.0197-0.1713-0.0394-0.2575-0.0572zm28.68-13.552c-0.1806 1.0103-0.4171 2.0077-1.0102 2.6936-0.1029 0.1007-0.2137 0.1932-0.3257 0.2751-0.4525 0.3161-1.0445 0.5221-1.593 0.5994-0.56-1.3415-0.9188-2.8142-0.4183-4.2342l0.0389-0.0246c0.0635 0.1255 0.1051 0.2551 0.1464 0.3838 0.0516 0.1606 0.1026 0.3197 0.1953 0.4673 0.0948 0.1543 0.1913 0.3045 0.2873 0.454 0.2187 0.3405 0.4352 0.6776 0.6257 1.0526 0.2332-0.1686 0.464-0.329 0.696-0.4776 0.4857-0.3184 0.953-0.6333 1.3576-1.1894zm-34.104 7.6212c0.075 0.0082 0.1507 0.0165 0.2261 0.0254l0.0067 7e-4c0.5626 0.0642 1.1576 0.132 1.6823 0.2591 0.1532 0.041 0.296 0.082 0.4343 0.1323-0.1892-0.5629-0.1111-1.1163-0.0329-1.6713 0.0509-0.3602 0.1018-0.721 0.0797-1.0855l0.0137-0.0363c0.784 0.6017 1.0217 1.53 1.2194 2.4946 0.0061 0.0314 0.0121 0.0628 0.0182 0.0942 0.1296 0.6691 0.2596 1.3406 0.5554 1.9064-0.1862-0.041-0.3645-0.0679-0.5519-0.0913-0.192-0.0269-0.392-0.0456-0.5988-0.0503-0.3863-0.089-0.7668-0.1826-1.1188-0.302-0.6571-0.2213-1.2456-0.5186-1.6981-0.9717-0.2103-0.2107-0.3931-0.4553-0.5337-0.7386 0.0956 0.0121 0.1962 0.0231 0.2984 0.0343zm-3.1336-7.4058c-0.5245-0.5373-0.89818-1.4644-0.81819-2.2909 0.06819 0.0291 0.11779 0.0754 0.17449 0.1282 0.0344 0.0321 0.0715 0.0667 0.1169 0.1012 0.5827 0.2514 0.9896 0.671 1.3871 1.0807 0.1022 0.1054 0.2038 0.2101 0.3076 0.3112 0.0147 0.0116 0.0204 0.0208 0.0283 0.0335l3e-4 5e-4 1.4513-2.3448 0.0537-0.0012c0.5326 1.1077 0.1043 1.9974-0.3254 2.8901-0.2702 0.5612-0.5409 1.1236-0.5739 1.7421-0.208-0.1651-0.4103-0.3477-0.6137-0.542-0.1099-0.1038-0.2205-0.211-0.3322-0.3192-0.2762-0.2676-0.5593-0.5418-0.8563-0.7894zm0.4807 1.4167c0.2467 0.1018 0.488 0.2014 0.7158 0.3147 0.3897 0.1873 0.7554 0.4202 1.0685 0.7749 0.092-0.2337 0.2-0.4665 0.3088-0.7011 0.2914-0.628 0.5889-1.2694 0.6031-1.9784l0.0251-0.0363 0.0606 0.0374c0.0091 0.0035 0.016 0.0176 0.016 0.0246 0.0434 0.0913 0.0914 0.1487 0.1737 0.2447 0.5462 1.2373 0.32 2.6433-0.128 3.8619-0.072 0.2013-0.1474 0.391-0.2354 0.583-0.3349-0.3216-0.732-0.5162-1.1323-0.7125-0.2512-0.1232-0.5037-0.247-0.743-0.4032-0.0323-0.0253-0.0647-0.0478-0.0983-0.071-0.0222-0.0154-0.0449-0.0311-0.0685-0.0484-0.5851-0.5244-0.8959-1.3239-0.9919-2.0696 0.1427 0.0625 0.2852 0.1212 0.4258 0.1793zm4.6012 9.037c-0.0343-0.0644-0.0572-0.1252-0.0492-0.1896 0.0137 0 0.0286 0 0.0503 0.0105 0.4219 0.0316 0.836-0.0502 1.2509-0.1322 0.1538-0.0304 0.3076-0.0608 0.4621-0.0855 0.3782-0.0527 0.7645-0.0738 1.1588 0.0363 0.0137-0.0668 0.0137-0.1077-0.0023-0.1698-0.288-0.426-0.3313-0.9564-0.3738-1.476-0.041-0.5014-0.0812-0.9927-0.3393-1.3709 0.0964-0.0026 0.1628 0.0315 0.2349 0.0684 0.0619 0.0317 0.1281 0.0656 0.221 0.0802 0.3463 0.1944 0.6046 0.4624 0.8057 0.782 0.3323 0.5162 0.5178 1.1568 0.7014 1.791 0.1492 0.515 0.297 1.0257 0.5213 1.4622-0.3794-0.0223-0.7793 0.0094-1.185 0.0503-0.0758 0.0073-0.1519 0.0151-0.2282 0.0228-0.4985 0.0507-1.0054 0.1022-1.5019 0.0393-0.3566-0.0433-0.7028-0.1487-1.0445-0.3407-0.046-0.0344-0.1008-0.0715-0.1595-0.1112-0.1904-0.129-0.4214-0.2854-0.5227-0.4671zm28.621-4.6145-0.0215 0.0093c-0.0723 0.03-0.1461 0.0605-0.2202 0.0911-0.1369 0.0564-0.2748 0.1133-0.406 0.1688 0 0 0-0.0434-0.024-0.1077-0.0198-0.0809-0.04-0.1624-0.0603-0.2444-0.3479-1.404-0.7329-2.9581 0.1643-4.1549h0.032l0.4822 1.5254 0.3349 1.0559c0.5496-0.3009 1.2913-0.4683 1.9244-0.5666 0.1746-0.0271 0.3409-0.0463 0.4943-0.064 0.0524-0.0061 0.1033-0.012 0.1525-0.018-0.039 0.0836-0.0636 0.1112-0.1262 0.1815-0.0164 0.0183-0.0354 0.0396-0.0578 0.0655-0.1257 0.2658-0.2789 0.4917-0.4537 0.6907-0.5812 0.6627-1.3893 1.0113-2.2149 1.3674zm-23.437 8.4448c0.3989-0.0936 0.7211-0.2681 1.0354-0.4483 0.0631-0.0362 0.1257-0.0729 0.1881-0.1095 0.4714-0.2764 0.936-0.5488 1.5717-0.5601 0.0263-0.027 0.0263-0.0749 0.0263-0.1253-0.2169-0.1487-0.3582-0.3918-0.5089-0.6513-0.0628-0.1081-0.1273-0.2192-0.1996-0.3273-0.0443-0.4858-0.1989-1.0158-0.3311-1.4689-0.0453-0.1551-0.0879-0.3012-0.1226-0.4334 1.1877 0.3789 1.9276 1.4432 2.6311 2.4551 0.0701 0.101 0.14 0.2014 0.2098 0.3006 2.3141 1.2455 5.1139 1.4609 7.5559 0.2259 0.4888-0.4146 0.8456-0.9233 1.1943-1.4206 0.5375-0.7666 1.0558-1.5058 2.0089-1.8302 0.016 0.014 0.0251 0.014 0.0491 0.014 0 0.1007-0.0343 0.1779-0.1074 0.2353-0.1077 0.9725-0.5903 1.7893-0.9679 2.4284-0.0592 0.1002-0.1158 0.1961-0.168 0.2875 0.3691 0.0879 0.7262 0.214 1.0807 0.3392 0.3293 0.1162 0.6564 0.2317 0.9888 0.3151 0.3988 0.1031 0.8011 0.1628 1.2273 0.1148-0.1279 0.0292-0.2148 0.0936-0.3496 0.2376-0.2777 0.2013-0.5691 0.343-0.8742 0.4413-1.1611 0.3711-2.4935 0.0188-3.5689-0.6099-0.9039 0.0117-1.8981 0.3149-2.5472 0.727l2.4741 0.7609s0.0023 0.0773 0.0023 0.1416c-0.0201 0.0593-0.0388 0.1214-0.0577 0.1846-0.0901 0.3001-0.1871 0.6233-0.476 0.7683-0.44-0.2295-0.9136-0.4349-1.3889-0.641-0.5282-0.229-1.0584-0.459-1.5468-0.7239-0.7872 0.0472-1.5312 0.477-2.2564 0.896-0.4256 0.2459-0.8447 0.488-1.2622 0.6469-0.0281-0.0114-0.056-0.0212-0.0821-0.0303-0.068-0.0239-0.1228-0.0431-0.1327-0.0727l-0.4034-0.7727c0.3329-0.3274 0.8418-0.4645 1.3424-0.5994 0.4049-0.1091 0.8044-0.2168 1.1008-0.4225-0.5474-0.2621-1.1598-0.3989-1.7773-0.5369-0.3093-0.0691-0.6199-0.1385-0.9242-0.224-0.4581-0.0027-0.7799 0.2216-1.1156 0.4556-0.2564 0.1787-0.5208 0.363-0.8602 0.4563-0.4891 0.1252-1.0731 0.1393-1.6113 0.0246-0.3885-0.0808-0.7554-0.2306-1.0468-0.4484zm23.433-6.7088c-0.1851 0.2446-0.3885 0.4823-0.6411 0.6696-0.5062 0.3933-1.2639 0.4389-1.9381 0.4167-0.2285-0.0117-0.4468-0.0293-0.6411-0.048h-0.0548c0.0109-0.0295 0.0189-0.0587 0.0269-0.0874 0.0078-0.0284 0.0154-0.0562 0.0256-0.0835 0.1326-0.4545 0.2143-0.9513 0.2958-1.4474 0.085-0.5172 0.1698-1.0336 0.3122-1.5003 0.1657-0.5443 0.4159-1.0336 0.833-1.3766l0.072-0.0024 0.3349 2.8833 1.3667-0.2657 0.9279-0.178c-0.3107 0.2047-0.5398 0.5118-0.7784 0.8315-0.0466 0.0625-0.0935 0.1254-0.1415 0.1882zm-3.2054 3.0892c-0.5154 0.1534-1.0514 0.2307-1.5759 0.2283-0.3862 0.0047-0.7725-0.048-1.1267-0.1487 0.1357-0.3473 0.253-0.7113 0.3703-1.0753 0.2084-0.6469 0.4167-1.2937 0.729-1.8465 0.3074-0.5397 0.7062-0.9974 1.2959-1.2807-0.2949 0.741-0.3749 1.8203-0.3509 2.5976 0.2115-0.0293 0.4263-0.0246 0.6446 0 0.2114 0.0187 0.4285 0.0597 0.6433 0.1124 0.1024 0.0219 0.2046 0.0452 0.3063 0.0685 0.398 0.0908 0.7883 0.1799 1.1496 0.1762-0.3897 0.3804-0.8913 0.7023-1.4456 0.9423-0.2068 0.0866-0.4217 0.1592-0.6399 0.2259zm-1.5576 2.0428c-0.7839 0.5174-1.6741 0.3734-2.5472 0.1217-0.1676-0.0494-0.3349-0.1018-0.5009-0.1538-0.2471-0.0775-0.4913-0.154-0.7299-0.2184 0.1666-0.3375 0.3133-0.6982 0.4605-1.06 0.2213-0.5441 0.4436-1.0907 0.736-1.5646 0.3394-0.549 0.7668-1.002 1.4045-1.2397l0.0342-0.0023c-0.304 0.5373-0.3607 1.1234-0.4176 1.7122-0.0372 0.3849-0.0746 0.771-0.1812 1.1453 0.0951 0.03 0.1921 0.0616 0.2908 0.0937 0.4625 0.1504 0.9598 0.3121 1.4439 0.3816 0.3977 0.0562 0.7943 0.0526 1.1314-0.0691-0.3051 0.2763-0.6045 0.501-0.9657 0.7387-0.0491 0.0421-0.1039 0.0784-0.1588 0.1147z" clipRule="evenodd" fillRule="evenodd"/><path fill="url(#a)" d="M54.9775 34H3V43H54.9775V34Z"/><path fill="#fff" d="m21.308 39.472h0.896v0.528h-1.58v-2.808h0.684v2.28zm1.9062-1.732v0.568h0.916v0.528h-0.916v0.616h1.036v0.548h-1.72v-2.808h1.72v0.548h-1.036zm4.1161-0.548-0.996 2.808h-0.856l-0.996-2.808h0.728l0.696 2.12 0.7-2.12h0.724zm0.9698 0.548v0.568h0.916v0.528h-0.916v0.616h1.036v0.548h-1.72v-2.808h1.72v0.548h-1.036zm2.1641 1.732h0.896v0.528h-1.58v-2.808h0.684v2.28zm2.7419-2.28v1.68c0 0.168 0.0413 0.2973 0.124 0.388s0.204 0.136 0.364 0.136 0.2827-0.0453 0.368-0.136 0.128-0.22 0.128-0.388v-1.68h0.684v1.676c0 0.2507-0.0533 0.4627-0.16 0.636s-0.2507 0.304-0.432 0.392c-0.1787 0.088-0.3787 0.132-0.6 0.132s-0.42-0.0427-0.596-0.128c-0.1733-0.088-0.3107-0.2187-0.412-0.392-0.1013-0.176-0.152-0.3893-0.152-0.64v-1.676h0.684zm4.2883 0.904c0 0.1627-0.0373 0.312-0.112 0.448-0.0746 0.1333-0.1893 0.2413-0.344 0.324-0.1546 0.0827-0.3466 0.124-0.576 0.124h-0.424v1.008h-0.684v-2.808h1.108c0.224 0 0.4134 0.0387 0.568 0.116 0.1547 0.0773 0.2707 0.184 0.348 0.32 0.0774 0.136 0.116 0.292 0.116 0.468zm-1.084 0.352c0.1307 0 0.228-0.0307 0.292-0.092s0.096-0.148 0.096-0.26-0.032-0.1987-0.096-0.26-0.1613-0.092-0.292-0.092h-0.372v0.704h0.372z"/><path fill="#F6F6F6" d="m37.98 22.018-8.25-8.625c-0.0958-0.1006-0.2097-0.1803-0.335-0.2347-0.1254-0.0544-0.2598-0.0824-0.3955-0.0824s-0.2701 0.028-0.3955 0.0824c-0.1253 0.0544-0.2392 0.1341-0.335 0.2347l-8.25 8.625c-0.1444 0.1508-0.2428 0.3432-0.2826 0.5526s-0.0193 0.4265 0.0591 0.6237c0.0783 0.1971 0.2109 0.3656 0.3809 0.4839s0.3697 0.1812 0.574 0.1807h3.0937v0.3593c0 0.286 0.1087 0.5602 0.3021 0.7624s0.4557 0.3158 0.7292 0.3158h8.25c0.2735 0 0.5358-0.1136 0.7292-0.3158s0.302-0.4764 0.302-0.7624v-0.3593h3.0938c0.204 1e-4 0.4036-0.063 0.5733-0.1815 0.1698-0.1184 0.3021-0.2869 0.3802-0.484s0.0985-0.414 0.0587-0.6232c-0.0399-0.2093-0.1382-0.4015-0.2826-0.5522zm-4.8546-0.3154c-0.2735 0-0.5358 0.1136-0.7292 0.3158s-0.3021 0.4764-0.3021 0.7623v0.3594h-6.1875v-0.3594c0-0.2859-0.1086-0.5601-0.302-0.7623s-0.4557-0.3158-0.7292-0.3158h-1.6328l5.7578-6.0195 5.7578 6.0195h-1.6328zm1.0312 9.7031c0 0.286-0.1086 0.5602-0.302 0.7624s-0.4557 0.3158-0.7292 0.3158h-8.25c-0.2735 0-0.5358-0.1136-0.7292-0.3158s-0.3021-0.4764-0.3021-0.7624c0-0.2859 0.1087-0.5601 0.3021-0.7623s0.4557-0.3158 0.7292-0.3158h8.25c0.2735 0 0.5358 0.1136 0.7292 0.3158s0.302 0.4764 0.302 0.7623zm0-3.5937c0 0.2859-0.1086 0.5601-0.302 0.7623s-0.4557 0.3158-0.7292 0.3158h-8.25c-0.2735 0-0.5358-0.1136-0.7292-0.3158s-0.3021-0.4764-0.3021-0.7623c0-0.286 0.1087-0.5602 0.3021-0.7624s0.4557-0.3157 0.7292-0.3157h8.25c0.2735 0 0.5358 0.1135 0.7292 0.3157s0.302 0.4764 0.302 0.7624z"/><defs><linearGradient id="f" x1="51.5" x2="51.5" y1="38" y2="45.895" gradientUnits="userSpaceOnUse"><stop offset="0" stop-color="#78CF42"/><stop offset="1" stop-color="#5AA753"/></linearGradient><linearGradient id="e" x1="6.4629" x2="6.4629" y1="38" y2="45.895" gradientUnits="userSpaceOnUse"><stop offset="0" stop-color="#78CF42"/><stop offset="1" stop-color="#5AA753"/></linearGradient><linearGradient id="d" x1="29.61" x2="29.116" y1="60.89" y2="-6.8732" gradientUnits="userSpaceOnUse"><stop offset=".1589" stop-color="#FEC84E"/><stop offset=".9451" stop-color="#FFDEA8"/></linearGradient><linearGradient id="c" x1="29.373" x2="29.14" y1="3.11" y2="46.956" gradientUnits="userSpaceOnUse"><stop offset=".1589" stop-color="#FEC84E"/><stop offset=".9451" stop-color="#FFDEA8"/></linearGradient><linearGradient id="b" x1="29.22" x2="29.22" y1="4.8448" y2="47.282" gradientUnits="userSpaceOnUse"><stop offset="0" stop-color="#FFDEA8"/><stop offset="1" stop-color="#FEC84E"/></linearGradient><linearGradient id="a" x1="28.989" x2="28.989" y1="34" y2="43" gradientUnits="userSpaceOnUse"><stop offset="0" stop-color="#78CF42"/><stop offset="1" stop-color="#5AA753"/></linearGradient></defs></svg>