<?xml version="1.0" encoding="UTF-8"?><svg xmlns="http://www.w3.org/2000/svg" fill="none" viewBox="0 0 206 50"><g clip-path="url(#c)"><path fill="url(#b)" d="m25 50c-0.0098-13.803-11.197-24.99-25-25 13.803-0.0098 24.99-11.197 25-25 0.0098 13.803 11.197 24.99 25 25-13.803 0.0098-24.99 11.197-25 25z"/></g><path fill="url(#a)" d="m82.141 18.203c-0.125-1.2604-0.6614-2.2396-1.6093-2.9375-0.948-0.6979-2.2344-1.0469-3.8594-1.0469-1.1042 0-2.0365 0.1563-2.7969 0.4688-0.7604 0.3021-1.3437 0.724-1.75 1.2656-0.3958 0.5417-0.5937 1.1563-0.5937 1.8438-0.0209 0.5729 0.0989 1.0729 0.3593 1.5 0.2709 0.4271 0.6407 0.7968 1.1094 1.1093 0.4688 0.3021 1.0104 0.5678 1.625 0.7969 0.6146 0.2188 1.2708 0.4063 1.9688 0.5625l2.875 0.6875c1.3958 0.3125 2.677 0.7292 3.8437 1.25 1.1667 0.5209 2.1771 1.1615 3.0313 1.9219 0.8541 0.7604 1.5156 1.6562 1.9843 2.6875 0.4792 1.0312 0.724 2.2135 0.7344 3.5469-0.0104 1.9583-0.5104 3.6562-1.5 5.0937-0.9792 1.4271-2.3958 2.5365-4.25 3.3281-1.8437 0.7813-4.0677 1.1719-6.6719 1.1719-2.5833 0-4.8333-0.3958-6.75-1.1875-1.9062-0.7916-3.3958-1.9635-4.4687-3.5156-1.0625-1.5625-1.6198-3.4948-1.6719-5.7969h6.5469c0.0729 1.0729 0.3802 1.9688 0.9219 2.6875 0.552 0.7084 1.2864 1.2448 2.2031 1.6094 0.9271 0.3542 1.9739 0.5312 3.1406 0.5312 1.1458 0 2.1406-0.1666 2.9844-0.5 0.8541-0.3333 1.5156-0.7968 1.9844-1.3906 0.4687-0.5937 0.7031-1.276 0.7031-2.0469 0-0.7187-0.2136-1.3229-0.6406-1.8125-0.4167-0.4895-1.0313-0.9062-1.8438-1.25-0.8021-0.3437-1.7865-0.6562-2.9531-0.9375l-3.4844-0.875c-2.6979-0.6562-4.8281-1.6822-6.3906-3.0781-1.5625-1.3958-2.3386-3.276-2.3281-5.6406-0.0105-1.9375 0.5052-3.6302 1.5468-5.0781 1.0521-1.4479 2.4948-2.5782 4.3282-3.3906 1.8333-0.8125 3.9166-1.2188 6.25-1.2188 2.375 0 4.4479 0.40625 6.2187 1.2188 1.7813 0.81245 3.1667 1.9428 4.1563 3.3906 0.9895 1.4479 1.5 3.125 1.5312 5.0312h-6.4844zm13.233 22.797v-32h12.625c2.427 0 4.495 0.46354 6.203 1.3906 1.709 0.9167 3.011 2.1927 3.907 3.8281 0.906 1.625 1.359 3.5 1.359 5.625s-0.458 4-1.375 5.625-2.245 2.8907-3.984 3.7969c-1.73 0.9063-3.823 1.3594-6.282 1.3594h-8.0465v-5.4219h6.9535c1.302 0 2.375-0.2239 3.218-0.6719 0.855-0.4583 1.49-1.0885 1.907-1.8906 0.427-0.8125 0.64-1.7448 0.64-2.7969 0-1.0625-0.213-1.9895-0.64-2.7812-0.417-0.8021-1.052-1.4219-1.907-1.8594-0.854-0.4479-1.937-0.6719-3.25-0.6719h-4.562v26.469h-6.7657zm30.249 0v-32h21.562v5.5781h-14.797v7.625h13.688v5.5781h-13.688v7.6407h14.86v5.5781h-21.625zm28.701 0v-32h6.766v26.422h13.718v5.5781h-20.484zm26.725 0v-32h6.765v26.422h13.719v5.5781h-20.484z"/><defs><linearGradient id="b" x1="25" x2="25" y1="2.3842e-5" y2="50" gradientUnits="userSpaceOnUse"><stop offset="0" stop-color="#1FA16B"/><stop offset="1" stop-color="#38EAA0"/></linearGradient><linearGradient id="a" x1="134" x2="134" y1="50" y2="1.1921e-5" gradientUnits="userSpaceOnUse"><stop offset="0" stop-color="#1FA16B"/><stop offset="1" stop-color="#38EAA0"/></linearGradient><clipPath id="c"><rect width="50" height="50" fill="#fff"/></clipPath></defs></svg>